<?xml version="1.0" encoding="utf-8"?>
<!-- Generator: Adobe Illustrator 13.0.0, SVG Export Plug-In . SVG Version: 6.00 Build 14948)  -->
<!DOCTYPE svg PUBLIC "-//W3C//DTD SVG 1.1//EN" "http://www.w3.org/Graphics/SVG/1.1/DTD/svg11.dtd">
<svg version="1.1" id="Layer_1" xmlns="http://www.w3.org/2000/svg" xmlns:xlink="http://www.w3.org/1999/xlink" x="0px" y="0px"
	 width="517.013px" height="148.219px" viewBox="0 0 517.013 148.219" enable-background="new 0 0 517.013 148.219"
	 xml:space="preserve">
<g>
	<g>
		<g>
			<g>
				<path fill="#004B85" d="M176.868,68.33V5.727h22.985c4.942,0,8.166,0.759,10.833,1.994c6.361,3.042,9.217,8.835,9.217,14.153
					c0,5.991-2.479,10.067-7.511,13.116v0.188c7.218,1.607,11.591,6.64,11.591,14.247c0,8.453-5.126,14.914-13.867,17.579
					c-3.139,0.947-6.555,1.328-11.973,1.328H176.868 M204.994,16.456c-1.433-0.66-3.143-1.041-5.895-1.041h-11.492v16.341h10.827
					c3.417,0,5.509-0.572,7.026-1.432c2.474-1.414,3.708-3.796,3.708-6.834C209.168,20.353,207.741,17.794,204.994,16.456
					 M208.311,42.391c-1.518-0.659-3.416-1.039-7.125-1.039h-13.579v17.286h12.821c3.892,0,6.177-0.476,7.982-1.324
					c3.044-1.515,4.561-4.188,4.561-7.789C212.971,46.288,211.256,43.724,208.311,42.391z"/>
				<rect x="286.626" y="5.727" fill="#004B85" width="10.734" height="62.604"/>
				<rect x="364.562" y="5.727" fill="#004B85" width="10.725" height="62.604"/>
				<path fill="#004B85" d="M409.958,5.16c6.748,0,13.589,1.618,17.377,3.515l-0.179,10.258c-5.418-2.658-10.931-4.375-17.481-4.375
					c-5.881,0-10.923,1.814-10.923,6.753c0,12.823,32.211,7.694,32.211,28.872c0,11.688-9.886,19.085-24.239,19.085
					c-9.772,0-16.52-2.754-21.175-5.588l4.458-8.743c3.807,2.376,9.895,4.94,17.104,4.94c6.465,0,12.45-2.479,12.45-8.167
					c0-13.408-31.919-7.512-31.919-28.882C387.642,11.423,396.754,5.16,409.958,5.16z"/>
				<polygon fill="#004B85" points="481.777,68.33 481.777,41.352 451.375,41.352 451.375,68.33 440.642,68.33 440.642,5.727 
					451.375,5.727 451.375,31.378 481.777,31.378 481.777,5.727 492.51,5.727 492.51,68.33 				"/>
				<path fill="#004B85" d="M200.57,79.326c6.837,0,12.057,1.338,17.387,3.704l-3.237,9.122c-3.04-1.418-7.035-3.128-13.005-3.128
					c-11.879,0-19.282,10.064-19.282,22.316c0,12.359,6.926,22.419,19.282,22.419c5.97,0,9.965-1.701,13.005-3.138l3.237,9.132
					c-5.33,2.365-10.55,3.694-17.387,3.694c-18.721,0-29.445-13.104-29.445-31.914C171.125,93.961,181.849,79.326,200.57,79.326z"/>
				<path fill="#004B85" d="M435.439,79.326c6.842,0,12.063,1.338,17.377,3.704l-3.223,9.122c-3.044-1.418-7.039-3.128-13.024-3.128
					c-11.875,0-19.282,10.064-19.282,22.316c0,12.359,6.937,22.419,19.282,22.419c5.985,0,9.98-1.701,13.024-3.138l3.223,9.132
					c-5.314,2.365-10.536,3.694-17.377,3.694c-18.725,0-29.459-13.104-29.459-31.914C405.98,93.961,416.714,79.326,435.439,79.326z"
					/>
				<path fill="#004B85" d="M279.313,111.141c0,18.82-11.977,32.305-29.641,32.305c-17.853,0-29.633-13.014-29.633-31.815
					c0-18.81,11.964-32.305,29.633-32.305C267.543,79.326,279.313,92.35,279.313,111.141 M268.004,111.339
					c0-13.674-7.781-22.415-18.332-22.415c-10.54,0-18.333,8.741-18.333,22.509c0,13.693,7.793,22.42,18.333,22.42
					C260.223,133.853,268.004,125.125,268.004,111.339z"/>
				<path fill="#004B85" d="M286.57,118.934V79.9h10.734v39.42c0,10.442,5.607,14.343,14.531,14.343
					c9.123,0,14.542-3.901,14.542-14.343V79.9h10.734v39.034c0,17.011-9.697,24.512-25.454,24.512
					C296.164,143.446,286.57,135.945,286.57,118.934z"/>
				<path fill="#004B85" d="M357.287,96.911h-0.188c0.188,2.083,0.282,5.409,0.282,8.359v37.225h-10.734V79.905h11.592
					l29.054,42.648h0.198c-0.198-2.092-0.282-5.418-0.282-8.368v-34.28h10.724v62.589h-9.49L357.287,96.911z"/>
				<rect x="461.252" y="79.9" fill="#004B85" width="10.715" height="62.604"/>
				<polygon fill="#004B85" points="481.777,142.503 481.777,79.9 492.51,79.9 492.51,132.807 517.013,132.807 517.013,142.503 				
					"/>
				<path fill="#004B85" d="M426.327,8.277"/>
			</g>
			<polygon fill="#004B85" points="356.354,5.741 305.541,5.741 305.541,15.523 325.575,15.523 325.575,68.33 336.31,68.33 
				336.31,15.523 356.354,15.523 			"/>
			<path fill="#004B85" d="M267.308,68.33c-9.111-18.895-11.49-24.22-15.289-24.22h-9.97v24.22H231.32V5.741h21.176
				c16.14,0,22.322,8.548,22.322,18.042c0,8.361-4.843,13.967-11.591,16.044v0.102c2.845,1.618,5.88,7.508,16.332,28.401H267.308z
				 M253.164,15.424h-11.115v19.003h10.635c7.7,0,11.306-3.99,11.306-9.692C263.99,19.604,260.666,15.424,253.164,15.424z"/>
		</g>
	</g>
	<path fill="#00A2E5" d="M71.603,35.804c0,19.771-16.029,35.804-35.801,35.804C16.03,71.607,0,55.575,0,35.804
		C0,16.029,16.03,0,35.801,0C55.573,0,71.603,16.029,71.603,35.804z"/>
	<path fill="#00A2E5" d="M148.219,35.804c0,19.771-16.029,35.804-35.801,35.804c-19.771,0-35.801-16.033-35.801-35.804
		C76.617,16.029,92.647,0,112.418,0C132.19,0,148.219,16.029,148.219,35.804z"/>
	<path fill="#00A2E5" d="M71.603,112.418c0,19.776-16.029,35.801-35.801,35.801C16.03,148.219,0,132.194,0,112.418
		s16.03-35.801,35.801-35.801C55.573,76.617,71.603,92.642,71.603,112.418z"/>
	<path fill="#00A2E5" d="M148.219,112.418c0,19.776-16.029,35.801-35.801,35.801c-19.771,0-35.801-16.025-35.801-35.801
		s16.03-35.801,35.801-35.801C132.19,76.617,148.219,92.642,148.219,112.418z"/>
</g>
</svg>
