<?xml version="1.0" encoding="utf-8"?>
<!-- Generator: Adobe Illustrator 12.0.0, SVG Export Plug-In  -->
<!DOCTYPE svg PUBLIC "-//W3C//DTD SVG 1.1//EN" "http://www.w3.org/Graphics/SVG/1.1/DTD/svg11.dtd" [
	<!ENTITY ns_flows "http://ns.adobe.com/Flows/1.0/">
	<!ENTITY ns_svg "http://www.w3.org/2000/svg">
	<!ENTITY ns_xlink "http://www.w3.org/1999/xlink">
]>
<svg  version="1.1" xmlns="&ns_svg;" xmlns:xlink="&ns_xlink;" xmlns:a="http://ns.adobe.com/AdobeSVGViewerExtensions/3.0/"
	 width="91" height="80" viewBox="-0.817 -0.298 91 80" enable-background="new -0.817 -0.298 91 80" xml:space="preserve">
<defs>
</defs>
<path fill="#F68B1F" d="M54.216,25.676c1.416-0.155,1.971-0.282,3.221-0.715c1.186-0.4,2.259-0.907,3.188-1.505
	c2.298-1.474,4.008-3.633,4.896-6.191c0.434-1.269,0.66-2.592,0.66-3.919c0-2.757-0.972-5.467-2.732-7.614
	c-0.83-1.01-1.773-1.865-2.816-2.536c-2.715-1.75-6.207-2.788-10.188-3.037C48.755,0.049,46.875,0,44.792,0H24.706v52.623h18.296
	c5.382,0,9.104-0.231,12.229-0.777c4.076-0.704,7.822-2.599,10.239-5.182c2.248-2.394,3.43-5.337,3.43-8.529
	c0-2.2-0.571-4.2-1.703-5.989c-1.267-1.996-3.193-3.629-5.552-4.713c-1.913-0.878-4.663-1.57-6.927-1.725
	C54.606,25.701,54.438,25.686,54.216,25.676z"/>
<path d="M7.348,71.907l0.288,0.082c1.388,0.523,2.053,1.716,2.053,2.965c0,1.791-1.13,4.183-5.525,4.183
	c-0.9,0-2.556-0.04-4.016-0.058L0,78.929V65.78l0.146-0.15c1.033-0.02,2.787-0.058,4.288-0.058c3.208,0,4.787,1.207,4.787,3.344
	c0,1.227-0.598,2.307-1.699,2.911L7.348,71.907z M4.163,78.987c4.323,0,5.375-2.318,5.375-4.033c0-1.363-0.817-2.649-2.57-2.999
	v-0.039c1.363-0.507,2.104-1.656,2.104-3c0-2.026-1.461-3.194-4.637-3.194c-1.499,0-3.252,0.038-4.285,0.058v13.149
	C1.61,78.947,3.267,78.987,4.163,78.987z M4.24,67.566l-1.817,0.036v3.581l1.486,0.018c2.008,0,2.791-0.734,2.791-1.954
	C6.7,68.25,6.222,67.566,4.24,67.566z M4.24,67.416c2.025,0,2.61,0.741,2.61,1.831c0,1.325-0.896,2.104-2.941,2.104
	c-0.604,0-1.285,0-1.637-0.02v-3.876C2.779,67.435,3.676,67.416,4.24,67.416z M3.947,73.118l-1.524,0.017v3.919l0.67,0.044
	c0.348,0.015,0.752,0.025,1.128,0.025c2.19,0,2.869-0.877,2.869-2.091C7.09,73.649,5.891,73.118,3.947,73.118z M3.947,72.968
	c1.948,0,3.292,0.545,3.292,2.064c0,1.306-0.778,2.241-3.019,2.241c-0.759,0-1.617-0.04-1.948-0.079v-4.207
	C2.564,72.968,3.559,72.968,3.947,72.968z"/>
<path d="M17.739,79.273c-4.146,0-6.715-2.508-6.715-6.637c0-4.187,2.799-7.182,7.318-7.182c1.242,0,2.445,0.178,3.722,0.532
	l0.109,0.163l-0.253,2.045l-0.204,0.121c-1.116-0.442-2.285-0.71-3.53-0.71c-2.535,0-4.583,1.644-4.583,4.817
	c0,2.969,1.665,4.661,4.408,4.661c0.372,0,0.72-0.028,1.048-0.08l0.828-0.199v-3.628h-2.908l-0.15-0.15v-1.734l0.15-0.15h5.182
	l0.149,0.15v7.032l-0.096,0.14C20.89,78.979,19.258,79.273,17.739,79.273z M17.739,79.123c1.499,0,3.116-0.292,4.422-0.799v-7.032
	h-5.182v1.734h3.059v3.896c-0.604,0.195-1.267,0.311-2.026,0.311c-2.824,0-4.558-1.772-4.558-4.811c0-3.253,2.123-4.967,4.732-4.967
	c1.268,0,2.455,0.273,3.585,0.721l0.253-2.045c-1.266-0.351-2.454-0.527-3.682-0.527c-4.441,0-7.168,2.922-7.168,7.032
	C11.175,76.688,13.668,79.123,17.739,79.123z"/>
<path d="M35.173,79.273c-4.146,0-6.714-2.508-6.714-6.637c0-4.187,2.799-7.182,7.317-7.182c1.241,0,2.444,0.178,3.721,0.532
	l0.109,0.163l-0.253,2.045l-0.204,0.121c-1.116-0.442-2.285-0.71-3.529-0.71c-2.534,0-4.582,1.644-4.582,4.817
	c0,2.969,1.664,4.661,4.407,4.661c0.372,0,0.72-0.028,1.048-0.08l0.828-0.199v-3.628h-2.908l-0.15-0.15v-1.734l0.15-0.15h5.182
	l0.15,0.15v7.032l-0.097,0.14C38.323,78.979,36.691,79.273,35.173,79.273z M35.173,79.123c1.5,0,3.117-0.292,4.422-0.799v-7.032
	h-5.182v1.734h3.059v3.896c-0.604,0.195-1.268,0.311-2.026,0.311c-2.825,0-4.558-1.772-4.558-4.811c0-3.253,2.123-4.967,4.732-4.967
	c1.267,0,2.454,0.273,3.584,0.721l0.254-2.045c-1.267-0.351-2.454-0.527-3.682-0.527c-4.44,0-7.168,2.922-7.168,7.032
	C28.608,76.688,31.102,79.123,35.173,79.123z"/>
<path d="M49.46,79.009l-3.482-5.541h-1.169v5.461l-0.149,0.15h-2.123l-0.15-0.15V65.78l0.144-0.15
	c0.959-0.039,2.789-0.058,4.176-0.058c2.89,0,4.862,0.954,4.862,3.792c0,1.719-0.944,2.98-2.599,3.575l-0.538,0.153l0.93,1.292
	l0.001,0.002l2.921,4.461l-0.125,0.232h-2.57L49.46,79.009z M49.587,78.929h2.57l-2.921-4.461c-0.37-0.546-0.7-0.994-1.052-1.462
	c2.065-0.447,3.233-1.753,3.233-3.642c0-2.727-1.851-3.642-4.713-3.642c-1.385,0-3.216,0.019-4.169,0.058v13.149h2.123v-5.611h1.401
	L49.587,78.929z M46.45,67.585l-1.642,0.037v3.835l1.623,0.036c1.787,0,2.596-0.709,2.596-1.992
	C49.027,68.063,48.292,67.585,46.45,67.585z M46.45,67.435c1.87,0,2.728,0.526,2.728,2.066c0,1.382-0.915,2.142-2.746,2.142
	c-0.526,0-1.5-0.019-1.772-0.039v-4.129C45.01,67.455,45.711,67.435,46.45,67.435z"/>
<path d="M59.073,79.273c-4.087,0-6.071-2.687-6.071-6.773c0-4.437,2.911-7.065,6.461-7.065c3.627,0,6.071,2.284,6.071,6.754
	C65.534,76.625,62.644,79.273,59.073,79.273z M59.073,79.123c3.486,0,6.312-2.571,6.312-6.934c0-4.403-2.377-6.604-5.922-6.604
	c-3.468,0-6.312,2.552-6.312,6.915C53.151,76.532,55.079,79.123,59.073,79.123z M59.268,67.605c-1.931,0-3.706,1.548-3.706,4.642
	c0,2.945,1.189,4.836,3.667,4.836c1.858,0,3.746-1.474,3.746-4.68C62.975,69.272,61.62,67.605,59.268,67.605z M59.268,67.455
	c2.455,0,3.857,1.773,3.857,4.948c0,3.272-1.947,4.83-3.896,4.83c-2.59,0-3.817-2.006-3.817-4.986
	C55.411,69.091,57.242,67.455,59.268,67.455z"/>
<path d="M72.65,79.273c-4.218,0-5.157-2.361-5.157-4.825V65.78l0.15-0.15h2.124l0.15,0.15v8.512c0,1.709,0.524,2.928,2.868,2.928
	c2.073,0,2.968-0.808,2.968-3.201V65.78l0.149-0.15h2.084l0.15,0.15v8.084C78.138,77.446,76.167,79.273,72.65,79.273z M72.65,79.123
	c3.448,0,5.337-1.753,5.337-5.259V65.78h-2.084v8.239c0,2.455-0.974,3.351-3.117,3.351c-2.435,0-3.019-1.325-3.019-3.078V65.78
	h-2.124v8.668C67.644,76.863,68.521,79.123,72.65,79.123z"/>
<path d="M84.669,74.247L83.3,74.213v4.716l-0.15,0.15h-2.123l-0.149-0.15V65.78l0.144-0.15c1.016-0.039,2.691-0.078,3.979-0.078
	c2.982,0,5.02,1.291,5.02,4.085C90.02,72.803,87.479,74.247,84.669,74.247z M84.669,74.097c2.766,0,5.201-1.402,5.201-4.46
	c0-2.689-1.929-3.935-4.87-3.935c-1.285,0-2.96,0.039-3.974,0.078v13.149h2.123v-4.87C83.579,74.077,84.299,74.097,84.669,74.097z
	 M84.824,67.625L83.3,67.642v4.498l1.408,0.035c1.742,0,2.792-0.787,2.792-2.324C87.5,68.44,86.679,67.625,84.824,67.625z
	 M84.824,67.475c1.909,0,2.825,0.876,2.825,2.376c0,1.636-1.149,2.474-2.941,2.474c-0.545,0-1.092-0.02-1.559-0.039v-4.792
	C83.538,67.475,84.318,67.475,84.824,67.475z"/>
<path fill="#F68B1F" d="M24.707,52.623h18.295c5.382,0,9.104-0.231,12.229-0.777c4.076-0.704,7.822-2.599,10.239-5.182
	c2.248-2.394,3.43-5.337,3.43-8.529c0-2.2-0.57-4.2-1.703-5.989c-1.267-1.996-3.193-3.629-5.552-4.713
	c-1.913-0.878-4.663-1.57-6.927-1.725c-0.112-0.007-0.28-0.022-0.503-0.032c1.416-0.155,1.971-0.282,3.221-0.715
	c1.187-0.4,2.259-0.907,3.188-1.505c2.298-1.474,4.008-3.633,4.896-6.191c0.434-1.269,0.66-2.592,0.66-3.919
	c0-2.757-0.972-5.467-2.732-7.614c-0.83-1.01-1.773-1.865-2.816-2.536c-2.715-1.75-6.207-2.788-10.188-3.037
	C48.755,0.049,46.875,0,44.792,0H24.707V52.623"/>
<path fill="#FFFFFF" d="M54.216,7.817v3.507h-3.651c0.39,0.276,0.538,0.397,0.831,0.725c0.241,0.259,0.464,0.528,0.657,0.812
	c0.701,1.051,1.028,2.148,1.028,3.484c0,1.389-0.375,2.739-1.066,3.892c-0.691,1.141-1.664,2.038-2.941,2.712
	c-0.933,0.495-1.78,0.783-3.364,1.149c-0.473,0.112-0.914,0.209-1.314,0.298c-0.518,0.106-0.845,0.173-0.975,0.197
	c-0.33,0.079-0.632,0.171-0.919,0.268c-0.282,0.1-0.547,0.239-0.785,0.41c-0.455,0.321-0.719,0.825-0.719,1.385
	c0,0.494,0.232,1.024,0.575,1.337c0.572,0.52,1.354,0.76,3.181,0.992l1.864,0.242c2.07,0.26,3.173,0.472,4.402,0.837
	c0.625,0.194,1.199,0.426,1.726,0.703c1.313,0.697,2.329,1.919,2.8,3.366c0.199,0.622,0.306,1.301,0.306,2.005
	c0,1.931-0.841,3.894-2.249,5.254c-1.423,1.362-3.581,2.276-6.303,2.644c-0.956,0.133-1.93,0.197-2.927,0.197
	c-2.84,0-5.318-0.514-7.248-1.502c-1.588-0.827-2.994-2.272-3.601-3.733c-0.305-0.727-0.463-1.545-0.463-2.401
	c0-2.296,1.122-4.191,3.159-5.342c0.705-0.396,1.573-0.734,2.453-0.943c0.092-0.024,0.233-0.054,0.425-0.094
	c-0.66-0.243-0.876-0.347-1.267-0.629c-0.776-0.55-1.216-1.418-1.216-2.411c0-0.872,0.359-1.683,0.999-2.249
	c0.245-0.222,0.524-0.409,0.831-0.592c0.436-0.248,0.825-0.413,1.451-0.635c0.082-0.025,0.2-0.074,0.366-0.126
	c-0.718-0.187-0.985-0.271-1.434-0.462c-0.486-0.215-0.962-0.482-1.42-0.815c-1.215-0.882-2.051-2.007-2.562-3.437
	c-0.312-0.881-0.478-1.811-0.478-2.741c0-1.796,0.614-3.669,1.655-5.065c0.612-0.81,1.397-1.505,2.295-2.033
	c1.333-0.784,2.829-1.17,4.923-1.281c0.69-0.041,1.49-0.058,2.392-0.058c0.576,0,1.62,0.013,3.119,0.04L54.216,7.817 M48.468,16.475
	c0.011-0.13,0.013-0.263,0.013-0.39c0-1.207-0.468-2.362-1.309-3.192c-0.875-0.875-2.088-1.323-3.529-1.323
	c-1.354,0-2.511,0.4-3.411,1.175c-0.959,0.833-1.42,1.942-1.42,3.405c0,1.429,0.466,2.53,1.403,3.341
	c0.407,0.354,0.886,0.622,1.418,0.816c0.624,0.22,1.332,0.345,2.03,0.345c1.244,0,2.328-0.333,3.123-0.962
	C47.786,18.906,48.342,17.834,48.468,16.475z M51.253,36.668l0.001-0.142c0-1.05-0.522-1.963-1.466-2.54
	c-0.502-0.312-1.062-0.539-1.647-0.683c-1.105-0.258-2.335-0.379-3.88-0.379c-2.063,0-3.453,0.212-4.604,0.709
	c-0.866,0.378-1.548,1.041-1.85,1.806c-0.123,0.321-0.198,0.688-0.198,1.074c0,0.536,0.149,1.098,0.41,1.545
	c0.374,0.656,1.014,1.19,1.923,1.616c1.135,0.531,2.42,0.799,4.14,0.845c0.158,0,0.318,0.007,0.475,0.007
	c1.702,0,2.977-0.227,4.189-0.723c0.5-0.21,0.944-0.473,1.322-0.786C50.816,38.406,51.201,37.636,51.253,36.668z"/>
<path d="M4.163,78.987c-0.896,0-2.553-0.04-4.014-0.058V65.78c1.033-0.02,2.786-0.058,4.285-0.058c3.176,0,4.637,1.168,4.637,3.194
	c0,1.344-0.74,2.493-2.104,3v0.039c1.753,0.35,2.57,1.636,2.57,2.999C9.538,76.669,8.486,78.987,4.163,78.987 M4.24,67.416
	c-0.564,0-1.461,0.019-1.968,0.039v3.876c0.352,0.02,1.033,0.02,1.637,0.02c2.045,0,2.941-0.779,2.941-2.104
	C6.851,68.157,6.266,67.416,4.24,67.416z M3.947,72.968c-0.389,0-1.383,0-1.675,0.019v4.207c0.331,0.039,1.189,0.079,1.948,0.079
	c2.24,0,3.019-0.935,3.019-2.241C7.239,73.513,5.896,72.968,3.947,72.968z"/>
<path d="M17.739,79.123c-4.071,0-6.564-2.435-6.564-6.487c0-4.11,2.727-7.032,7.168-7.032c1.228,0,2.416,0.176,3.682,0.527
	l-0.253,2.045c-1.13-0.448-2.317-0.721-3.585-0.721c-2.609,0-4.732,1.714-4.732,4.967c0,3.039,1.733,4.811,4.558,4.811
	c0.76,0,1.422-0.116,2.026-0.311v-3.896h-3.059v-1.734h5.182v7.032C20.855,78.831,19.238,79.123,17.739,79.123"/>
<path d="M35.173,79.123c-4.071,0-6.564-2.435-6.564-6.487c0-4.11,2.728-7.032,7.168-7.032c1.228,0,2.415,0.176,3.682,0.527
	l-0.254,2.045c-1.13-0.448-2.317-0.721-3.584-0.721c-2.609,0-4.732,1.714-4.732,4.967c0,3.039,1.732,4.811,4.558,4.811
	c0.759,0,1.422-0.116,2.026-0.311v-3.896h-3.059v-1.734h5.182v7.032C38.29,78.831,36.673,79.123,35.173,79.123"/>
<path d="M49.587,78.929l-3.526-5.611h-1.401v5.611h-2.123V65.78c0.953-0.039,2.784-0.058,4.169-0.058
	c2.862,0,4.713,0.915,4.713,3.642c0,1.889-1.168,3.195-3.233,3.642c0.352,0.468,0.682,0.916,1.052,1.462l2.921,4.461H49.587
	 M46.45,67.435c-0.739,0-1.44,0.02-1.791,0.04v4.129c0.272,0.02,1.246,0.039,1.772,0.039c1.831,0,2.746-0.76,2.746-2.142
	C49.178,67.961,48.32,67.435,46.45,67.435z"/>
<path d="M59.073,79.123c-3.994,0-5.922-2.591-5.922-6.623c0-4.363,2.844-6.915,6.312-6.915c3.545,0,5.922,2.201,5.922,6.604
	C65.385,76.552,62.56,79.123,59.073,79.123 M59.268,67.455c-2.025,0-3.856,1.636-3.856,4.792c0,2.98,1.228,4.986,3.817,4.986
	c1.949,0,3.896-1.558,3.896-4.83C63.125,69.228,61.723,67.455,59.268,67.455z"/>
<path d="M72.65,79.123c-4.13,0-5.007-2.26-5.007-4.675V65.78h2.124v8.512c0,1.753,0.584,3.078,3.019,3.078
	c2.144,0,3.117-0.896,3.117-3.351V65.78h2.084v8.084C77.987,77.37,76.099,79.123,72.65,79.123"/>
<path d="M84.669,74.097c-0.37,0-1.09-0.02-1.52-0.038v4.87h-2.123V65.78c1.014-0.039,2.688-0.078,3.974-0.078
	c2.941,0,4.87,1.246,4.87,3.935C89.87,72.695,87.435,74.097,84.669,74.097 M84.824,67.475c-0.506,0-1.286,0-1.675,0.019v4.792
	c0.467,0.019,1.014,0.039,1.559,0.039c1.792,0,2.941-0.838,2.941-2.474C87.649,68.351,86.733,67.475,84.824,67.475z"/>
</svg>
