<?xml version="1.0" encoding="UTF-8" standalone="no"?>
<!-- Created with Inkscape (http://www.inkscape.org/) -->

<svg
   xmlns:dc="http://purl.org/dc/elements/1.1/"
   xmlns:cc="http://creativecommons.org/ns#"
   xmlns:rdf="http://www.w3.org/1999/02/22-rdf-syntax-ns#"
   xmlns:svg="http://www.w3.org/2000/svg"
   xmlns="http://www.w3.org/2000/svg"
   xmlns:sodipodi="http://sodipodi.sourceforge.net/DTD/sodipodi-0.dtd"
   xmlns:inkscape="http://www.inkscape.org/namespaces/inkscape"
   width="1025.15"
   height="200.59"
   id="svg3552"
   sodipodi:version="0.32"
   inkscape:version="0.48.0 r9654"
   version="1.0"
   sodipodi:docname="Edexcel.svg"
   inkscape:output_extension="org.inkscape.output.svg.inkscape">
  <defs
     id="defs3554">
    <clipPath
       clipPathUnits="userSpaceOnUse"
       id="clipPath2650">
      <path
         d="m 506.42,138.199 118.293,0 0,33.495 -118.293,0 0,-33.495 z"
         id="path2652"
         inkscape:connector-curvature="0" />
    </clipPath>
    <clipPath
       clipPathUnits="userSpaceOnUse"
       id="clipPath2668">
      <path
         d="m 506.42,138.199 118.293,0 0,33.495 -118.293,0 0,-33.495 z"
         id="path2670"
         inkscape:connector-curvature="0" />
    </clipPath>
    <inkscape:perspective
       sodipodi:type="inkscape:persp3d"
       inkscape:vp_x="0 : 526.18109 : 1"
       inkscape:vp_y="0 : 1000 : 0"
       inkscape:vp_z="744.09448 : 526.18109 : 1"
       inkscape:persp3d-origin="372.04724 : 350.78739 : 1"
       id="perspective3560" />
  </defs>
  <sodipodi:namedview
     id="base"
     pagecolor="#ffffff"
     bordercolor="#666666"
     borderopacity="1.0"
     gridtolerance="10000"
     guidetolerance="10"
     objecttolerance="10"
     inkscape:pageopacity="0.0"
     inkscape:pageshadow="2"
     inkscape:zoom="0.98994949"
     inkscape:cx="511.71011"
     inkscape:cy="310.54082"
     inkscape:document-units="px"
     inkscape:current-layer="layer1"
     showgrid="false"
     inkscape:window-width="1280"
     inkscape:window-height="962"
     inkscape:window-x="-8"
     inkscape:window-y="-8"
     showguides="true"
     inkscape:guide-bbox="true"
     inkscape:window-maximized="0">
    <sodipodi:guide
       orientation="1,0"
       position="1017.2236,409.11178"
       id="guide3637" />
    <sodipodi:guide
       orientation="0,1"
       position="666.70068,453.55849"
       id="guide3639" />
  </sodipodi:namedview>
  <metadata
     id="metadata3557">
    <rdf:RDF>
      <cc:Work
         rdf:about="">
        <dc:format>image/svg+xml</dc:format>
        <dc:type
           rdf:resource="http://purl.org/dc/dcmitype/StillImage" />
      </cc:Work>
    </rdf:RDF>
  </metadata>
  <g
     inkscape:label="Layer 1"
     inkscape:groupmode="layer"
     id="layer1"
     transform="translate(-1.0668743,-87.431486)">
    <g
       id="g3040"
       transform="translate(7.0716743,91.944187)">
      <path
         inkscape:connector-curvature="0"
         id="path2640"
         style="fill:#002756;fill-opacity:1;fill-rule:nonzero;stroke:none"
         d="m 508.00276,171.4332 -51.64591,-66.31143 45.98162,-58.431057 -26.25077,0 -32.78779,41.66068 -32.44551,-41.66068 -25.74595,0 45.34844,57.977567 -52.53574,66.76492 26.24221,0 39.38469,-50.03732 39.14513,50.03732 25.30958,0" />
      <path
         inkscape:connector-curvature="0"
         id="path2642"
         style="fill:#002756;fill-opacity:1;fill-rule:nonzero;stroke:none"
         d="m 227.80062,153.96977 c -5.88674,1.92517 -14.14358,3.11449 -22.26352,3.11449 -33.89156,0 -50.53359,-17.36076 -50.53359,-46.42655 0,-33.985677 24.30848,-49.464047 50.217,-49.464047 9.79699,0 15.43559,1.0182 22.58011,3.1316 0,3.63644 0,86.042287 0,89.644507 z m 0,-137.970557 c 0,0 0,25.60049 0,30.53748 -7.56377,-1.65993 -14.72541,-2.41287 -23.77799,-2.41287 -42.62756,0 -71.19709,28.81766 -71.19709,67.038717 0,38.41783 25.66039,63.24826 70.88907,63.24826 18.88378,0 35.89373,-4.16692 45.3399,-9.01835 l 0,-149.393237 -21.25389,0" />
      <path
         inkscape:connector-curvature="0"
         id="path2644"
         style="fill:#002756;fill-opacity:1;fill-rule:nonzero;stroke:none"
         d="m 283.13431,96.420013 c 2.35299,-20.82608 20.96297,-35.22635 41.17297,-35.22635 22.8967,0 35.32902,18.40463 36.16754,35.22635 -4.92843,0 -72.18962,0 -77.34051,0 z m 96.79757,66.029057 -7.4611,-14.2377 c -11.66226,5.53593 -21.6047,8.87289 -39.81253,8.87289 -28.13316,0 -49.82342,-17.12974 -50.48226,-43.834 5.15946,0 100.73348,0 100.73348,0 l 0.18824,-6.14343 c 1.15511,-38.845657 -23.50419,-62.983007 -58.58507,-62.983007 -34.73864,0 -63.93277,26.68714 -64.47183,63.239707 -0.59894,40.7366 28.06472,67.04727 69.06657,67.04727 19.75652,0 38.14405,-3.79045 50.8245,-11.96173" />
      <g
         style="fill:#002756;fill-opacity:1"
         id="g2646"
         transform="matrix(8.5563136,0,0,-8.5563136,-4332.0216,1470.4954)">
        <g
           style="fill:#002756;fill-opacity:1"
           clip-path="url(#clipPath2650)"
           id="g2648">
          <path
             inkscape:connector-curvature="0"
             id="path2654"
             style="fill:#002756;fill-opacity:1;fill-rule:nonzero;stroke:none"
             d="m 580.123,160.592 c 0.275,2.434 2.45,4.117 4.811,4.117 2.676,0 4.13,-2.151 4.228,-4.117 -0.576,0 -8.437,0 -9.039,0 z m 11.313,-7.717 -0.872,1.664 c -1.363,-0.647 -2.525,-1.037 -4.653,-1.037 -3.287,0 -5.824,2.002 -5.9,5.123 0.603,0 11.773,0 11.773,0 l 0.021,0.718 c 0.136,4.54 -2.746,7.361 -6.846,7.361 -4.06,0 -7.472,-3.119 -7.535,-7.391 -0.071,-4.761 3.281,-7.836 8.072,-7.836 2.308,0 4.457,0.443 5.94,1.398" />
          <path
             inkscape:connector-curvature="0"
             id="path2656"
             style="fill:#002756;fill-opacity:1;fill-rule:nonzero;stroke:none"
             d="m 509.175,160.592 c 0.274,2.434 2.449,4.117 4.812,4.117 2.675,0 4.128,-2.151 4.226,-4.117 -0.575,0 -8.436,0 -9.038,0 z m 11.313,-7.717 -0.872,1.664 c -1.364,-0.647 -2.526,-1.037 -4.653,-1.037 -3.288,0 -5.824,2.002 -5.9,5.123 0.603,0 11.773,0 11.773,0 l 0.021,0.718 c 0.136,4.54 -2.746,7.361 -6.846,7.361 -4.06,0 -7.473,-3.119 -7.536,-7.391 -0.07,-4.761 3.282,-7.836 8.073,-7.836 2.308,0 4.458,0.443 5.94,1.398" />
        </g>
      </g>
      <path
         inkscape:connector-curvature="0"
         id="path2658"
         style="fill:#002756;fill-opacity:1;fill-rule:nonzero;stroke:none"
         d="m 613.00584,162.49185 -8.06006,-14.61417 c -9.05257,5.26213 -24.81331,9.1638 -36.26165,9.1638 -30.161,0 -46.21265,-17.86558 -46.5549,-47.95814 -0.32514,-28.740647 17.40355,-47.273627 47.2993,-47.273627 10.78952,0 22.60577,2.54979 34.29371,8.74456 l 7.76912,-15.12756 c -8.17127,-5.65573 -24.29137,-11.30289 -42.25963,-11.30289 -49.61806,0 -69.68262,34.49905 -69.32325,66.730687 0.35937,31.68402 19.87631,63.55629 67.44942,63.55629 9.52318,0 27.16629,-1.54014 45.64794,-11.91895" />
      <path
         inkscape:connector-curvature="0"
         id="path2660"
         style="fill:#002756;fill-opacity:1;fill-rule:nonzero;stroke:none"
         d="m 776.61967,156.66501 7.21296,13.6901 c -1.91661,1.05242 -11.71359,4.05569 -18.75544,4.05569 -16.11153,0 -22.59721,-8.50498 -22.59721,-23.31595 l 0,-135.095637 21.24531,0 0,129.850607 c 0,12.52645 4.65465,12.77458 12.89438,10.81519" />
      <path
         inkscape:connector-curvature="0"
         id="path2662"
         style="fill:#adcfee;fill-opacity:1;fill-rule:nonzero;stroke:none"
         d="m 944.93091,4.2428327 c 1.26633,1.26634 2.04495,22.1266303 2.04495,24.0603503 0,1.93373 -0.77862,22.79403 -2.04495,24.06037 -1.2749,1.26633 -22.12662,2.05351 -24.06035,2.05351 -1.95084,0 -22.79402,-0.77862 -24.06891,-2.04496 -1.26634,-1.26633 -2.05352,-22.13519 -2.05352,-24.06892 0,-1.93372 0.78718,-22.7854503 2.05352,-24.0603503 1.27489,-1.26633 22.12662,-2.05351 24.06891,-2.05351 1.93373,0 22.78545,0.77863 24.06035,2.05351" />
      <g
         style="fill:#adcfee;fill-opacity:1"
         id="g2664"
         transform="matrix(8.5563136,0,0,-8.5563136,-4332.0216,1470.4954)">
        <g
           style="fill:#adcfee;fill-opacity:1"
           clip-path="url(#clipPath2668)"
           id="g2666">
          <path
             inkscape:connector-curvature="0"
             id="path2672"
             style="fill:#adcfee;fill-opacity:1;fill-rule:nonzero;stroke:none"
             d="m 624.429,163.708 c 0.148,-0.148 0.24,-2.586 0.24,-2.813 0,-0.226 -0.092,-2.663 -0.24,-2.811 -0.149,-0.149 -2.586,-0.241 -2.812,-0.24 -0.227,0 -2.664,0.091 -2.812,0.239 -0.149,0.148 -0.24,2.587 -0.24,2.812 0,0.227 0.092,2.664 0.24,2.813 0.148,0.148 2.586,0.24 2.812,0.24 0.226,0 2.664,-0.092 2.812,-0.24" />
          <path
             inkscape:connector-curvature="0"
             id="path2674"
             style="fill:#adcfee;fill-opacity:1;fill-rule:nonzero;stroke:none"
             d="m 608.88,171.214 c 0.297,-0.296 0.48,-2.195 0.48,-2.646 -10e-4,-0.452 -0.183,-2.351 -0.48,-2.648 -0.296,-0.296 -2.194,-0.478 -2.647,-0.479 -0.452,0 -2.35,0.184 -2.646,0.48 -0.297,0.297 -0.48,2.195 -0.48,2.647 10e-4,0.451 0.183,2.35 0.48,2.646 0.296,0.296 2.194,0.48 2.646,0.48 0.453,0 2.351,-0.184 2.647,-0.48" />
        </g>
      </g>
      <path
         inkscape:connector-curvature="0"
         id="path2676"
         style="fill:#adcfee;fill-opacity:1;fill-rule:nonzero;stroke:none"
         d="m 943.45066,71.136093 c 2.54123,2.53267 4.10704,18.77256 4.10704,22.64001 -0.009,3.86745 -1.56581,20.115897 -4.10704,22.657117 -2.53267,2.53266 -18.77254,4.08992 -22.64,4.09848 -3.86745,0 -20.1159,-1.57437 -22.64857,-4.10704 -2.53266,-2.54122 -4.10702,-18.781107 -4.10702,-22.648557 0.009,-3.86745 1.57436,-20.10734 4.10702,-22.64001 2.53267,-2.54122 18.77256,-4.11558 22.64857,-4.10703 3.86746,-0.0085 20.10733,1.56581 22.64,4.10703" />
      <path
         inkscape:connector-curvature="0"
         id="path2678"
         style="fill:#adcfee;fill-opacity:1;fill-rule:nonzero;stroke:none"
         d="m 1009.1118,136.75447 c 2.5498,2.54122 4.107,18.7811 4.107,22.64855 0,3.86745 -1.5572,20.10734 -4.107,22.64857 -2.5241,2.53267 -18.77258,4.09847 -22.63996,4.10703 -3.8675,0 -20.1074,-1.57436 -22.6486,-4.11559 -2.53266,-2.53267 -4.10702,-18.77256 -4.10702,-22.64001 0.009,-3.86745 1.57436,-20.11588 4.10702,-22.64855 2.5327,-2.53267 18.7726,-4.10703 22.6486,-4.09849 3.86738,-0.009 20.11586,1.56582 22.63996,4.09849" />
      <path
         inkscape:connector-curvature="0"
         id="path2680"
         style="fill:#adcfee;fill-opacity:1;fill-rule:nonzero;stroke:none"
         d="m 876.30072,72.479433 c 3.80756,3.80756 6.16055,15.42704 6.15199,21.22822 0.009,5.80973 -2.34443,17.429207 -6.15199,21.236767 -3.80757,3.80756 -15.42703,6.16054 -21.22821,6.16054 -5.8183,0 -17.42922,-2.35298 -21.24533,-6.16054 -3.79045,-3.80756 -6.14344,-15.427037 -6.15199,-21.228217 0,-5.80973 2.36154,-17.42921 6.15199,-21.23677 3.81611,-3.80755 15.43559,-6.15198 21.23677,-6.15198 5.80974,0 17.4292,2.34443 21.23677,6.15198" />
      <path
         inkscape:connector-curvature="0"
         id="path2682"
         style="fill:#adcfee;fill-opacity:1;fill-rule:nonzero;stroke:none"
         d="m 942.25279,138.17481 c 3.80755,3.80756 6.16053,15.42703 6.15198,21.23677 0.009,5.80118 -2.34443,17.42066 -6.15198,21.22821 -3.80757,3.80757 -15.42705,6.16055 -21.21967,6.16055 -5.8183,0 -17.43776,-2.35298 -21.24533,-6.16055 -3.799,-3.80755 -6.14343,-15.42703 -6.15199,-21.22821 0,-5.80974 2.35299,-17.42921 6.15199,-21.23677 3.80757,-3.80756 15.42703,-6.15199 21.23677,-6.15199 5.80118,0 17.42922,2.34443 21.22823,6.15199" />
      <path
         inkscape:connector-curvature="0"
         id="path2684"
         style="fill:#adcfee;fill-opacity:1;fill-rule:nonzero;stroke:none"
         d="m 960.87131,2.8053727 50.96139,0 0,50.9614103 -50.96139,0 0,-50.9614103 z" />
      <path
         inkscape:connector-curvature="0"
         id="path2686"
         style="fill:#adcfee;fill-opacity:1;fill-rule:nonzero;stroke:none"
         d="m 855.19229,187.38218 c -15.48693,0 -28.02192,-12.54357 -28.02192,-28.02194 0,-15.47837 12.54355,-28.02192 28.02192,-28.02192 15.47837,-0.009 28.03048,12.54355 28.03048,28.02192 0,15.47837 -12.55211,28.03048 -28.03048,28.02194" />
    </g>
  </g>
</svg>
