<?xml version="1.0" encoding="UTF-8" standalone="no"?>
<svg
   xmlns:dc="http://purl.org/dc/elements/1.1/"
   xmlns:cc="http://creativecommons.org/ns#"
   xmlns:rdf="http://www.w3.org/1999/02/22-rdf-syntax-ns#"
   xmlns:svg="http://www.w3.org/2000/svg"
   xmlns="http://www.w3.org/2000/svg"
   xmlns:sodipodi="http://sodipodi.sourceforge.net/DTD/sodipodi-0.dtd"
   xmlns:inkscape="http://www.inkscape.org/namespaces/inkscape"
   version="1.1"
   id="Layer_1"
   x="0px"
   y="0px"
   width="568"
   height="401"
   viewBox="0 0 568 401"
   enable-background="new 0 0 612 792"
   xml:space="preserve">
<path
   style="fill:#1c3f94"
   id="path5"
   d="m 338.90244,144.57171 c 0,7.35996 -1.85876,15.92155 -7.09085,23.48804 h 14.88265 V 50.062552 h -47.5769 v 48.171446 c 25.67851,8.198592 39.7851,25.159052 39.7851,46.337712"
   clip-path="none" /><polygon
   style="fill:#1c3f94"
   points="517.02,764.115 507.302,764.115 507.302,763.046 509.963,763.046 509.963,753.766 502.844,753.766 502.844,763.046 505.579,763.046 505.579,764.115 495.757,764.115 495.757,763.046 498.258,763.046 498.258,744.14 495.757,744.14 495.757,743.071 505.579,743.071 505.579,744.14 502.844,744.14 502.844,752.523 509.963,752.523 509.963,744.14 507.302,744.14 507.302,743.071 517.02,743.071 517.02,744.14 514.525,744.14 514.525,763.046 517.02,763.046 "
   id="polygon7"
   clip-path="none"
   transform="matrix(6.2584704,0,0,6.2584704,-3102.6805,-4383.6006)" /><path
   style="fill:#1c3f94"
   d="m 156.61823,266.88726 h 27.91278 v 15.57107 h -27.91278 v -15.57107 z m -13.70605,131.70325 v -6.69031 h 15.02659 v -81.04093 h -15.02659 v -6.7216 h 42.66399 v 87.76253 h 13.95013 v 6.69031 h -56.61412 z"
   id="path9"
   clip-path="none" /><polygon
   style="fill:#1c3f94"
   points="537.846,764.115 528.599,764.115 528.599,763.046 531.064,763.046 531.064,741.373 528.599,741.373 528.599,740.293 535.523,740.293 535.523,763.046 537.846,763.046 "
   id="polygon11"
   clip-path="none"
   transform="matrix(6.2584704,0,0,6.2584704,-3102.6805,-4383.6006)" /><path
   style="fill:#1c3f94"
   id="path15"
   d="m 306.84656,398.59051 c -15.2206,0 -23.43798,-8.00458 -23.43798,-20.38384 v -67.35366 h -15.03284 v -6.72159 h 15.03284 v -37.48198 c 8.4239,0 17.26712,0.23782 25.94136,0 v 37.48198 h 21.57295 v 6.72159 h -21.57295 v 81.04094 h 22.0173 v 6.6903 h -24.52068 z"
   clip-path="none" /><path
   style="fill:#1c3f94"
   id="path17"
   d="m 435.86492,370.22712 c -3.13549,8.88703 -16.25324,30.7729 -48.16519,30.7729 -35.47926,0 -53.59754,-24.95252 -53.59754,-50.29933 0,-35.13505 30.37862,-49.62341 53.00925,-49.62341 20.05214,0 49.22287,12.34171 51.52599,48.10886 0.39428,6.9782 -0.2566,14.56346 -2.77251,21.04098 m -30.17208,-50.9064 c -3.61114,-8.24866 -10.15124,-11.90987 -18.81922,-11.90987 -21.77322,0 -22.17376,22.94982 -22.17376,42.8893 0,26.83632 2.30937,31.64909 3.9929,34.90975 2.76624,5.37603 8.69302,10.35151 18.41242,10.35151 21.75444,0 21.75444,-24.06382 21.49159,-46.14996 -0.16272,-24.04504 -1.66476,-27.0804 -2.90393,-30.09073"
   clip-path="none" /><path
   style="fill:#1c3f94"
   id="path19"
   d="m 513.0569,398.59051 v -6.69031 h 12.24782 v -55.73167 c 0,-12.50443 0,-24.86491 -13.49326,-24.86491 -7.59778,0 -20.0584,7.78554 -23.04995,20.53404 -1.06394,3.89277 -0.85115,8.07343 -0.85115,18.45623 v 41.60006 h 13.96265 v 6.6903 h -56.60786 v -6.6903 h 14.98277 v -81.04094 h -14.98277 v -6.72159 h 42.63895 v 14.3006 c 4.68134,-6.03316 8.47397,-10.40158 17.56753,-14.10659 6.5401,-2.81631 12.41681,-3.47971 16.69134,-3.47971 1.65224,0 6.71534,0 12.62959,1.74611 17.75528,5.43235 18.6127,19.25732 18.6127,29.23958 v 60.06254 h 14.59475 v 6.6903 H 513.0569 z"
   clip-path="none" /><path
   style="fill:#1c3f94"
   id="path21"
   d="m 273.25734,0.02608074 c -86.26675,0 -149.809,56.24487326 -149.809,116.33870926 0,31.06704 17.06059,57.20867 38.50211,75.33321 l 1.6272,-1.13279 c -17.01678,-14.43829 -32.37507,-37.07518 -32.37507,-68.07964 4.49984,-65.751489 83.55058,-102.807892 153.80191,-102.807892 49.72981,0 139.05696,11.778441 139.05696,97.056362 0,44.47269 -46.36275,102.3385 -143.65067,102.3385 -49.81743,0 -88.53858,-27.37454 -88.53858,-66.70903 0,-34.0586 25.99142,-58.297653 64.75639,-58.297653 10.70198,0 20.72805,2.553456 28.33835,4.675077 -16.15937,-2.979032 -41.27461,1.289246 -54.26094,11.740886 v 57.58419 h 47.63948 v -65.45108 c 8.98716,1.65849 15.94658,5.10691 20.76561,8.19234 v 39.05911 18.19963 h 12.42306 c -9.76947,11.23396 -27.93781,18.07446 -43.67787,15.55856 v 2.40325 c 45.27378,3.66121 64.41844,-18.37487 64.41844,-43.13964 0,-29.16447 -26.69238,-46.275126 -53.9355,-49.773611 V 50.062552 h -47.63947 v 43.546437 c -30.82923,6.383639 -60.99506,25.165311 -60.99506,56.301201 0,47.91485 65.25707,77.59877 122.06521,77.59877 86.3356,0 152.763,-42.82671 152.763,-102.87673 C 444.53916,51.921317 348.6281,0.02608074 273.25734,0.02608074"
   clip-path="none" /><path
   style="fill:#1c3f94"
   id="path23"
   d="m 433.71827,214.20345 c 1.83999,-0.0626 2.26556,-0.84489 2.26556,-1.83373 0,-0.95754 -0.42557,-1.45196 -1.98393,-1.45196 h -2.35319 v 3.28569 h 2.07156 z m -2.07156,2.00897 v 5.55127 h -1.95264 v -12.84238 h 4.04923 c 2.2906,0 4.66882,0.63836 4.66882,3.53603 0,1.48326 -0.87619,2.64108 -2.54094,2.99781 v 0.0626 c 1.72108,0.34422 1.92761,1.13279 2.12162,2.52843 0.16272,1.20788 0.31293,2.54719 0.73224,3.71753 h -2.48461 c -0.14394,-0.72599 -0.34422,-1.53959 -0.42558,-2.29686 -0.13768,-1.10149 -0.13768,-2.12162 -0.70094,-2.72869 -0.48816,-0.52572 -1.13905,-0.46939 -1.81496,-0.52572 h -1.65224 z m 11.02117,-0.73224 c 0,-4.93793 -3.90529,-8.98716 -8.7556,-8.98716 -4.86909,0 -8.80567,4.04297 -8.80567,8.98716 0,4.99426 3.93658,9.03098 8.80567,9.03098 4.85031,0.006 8.7556,-4.03672 8.7556,-9.03098 m -19.43255,0 c 0,-6.01439 4.75644,-10.89599 10.67695,-10.89599 5.89548,0 10.62688,4.8816 10.62688,10.89599 0,6.07698 -4.7314,10.95858 -10.62688,10.95858 -5.92051,0 -10.67695,-4.8816 -10.67695,-10.95858"
   clip-path="none" />
</svg>