<?xml version="1.0" encoding="UTF-8" standalone="no"?>
<!-- Created with Inkscape (http://www.inkscape.org/) -->

<svg
   xmlns:dc="http://purl.org/dc/elements/1.1/"
   xmlns:cc="http://creativecommons.org/ns#"
   xmlns:rdf="http://www.w3.org/1999/02/22-rdf-syntax-ns#"
   xmlns:svg="http://www.w3.org/2000/svg"
   xmlns="http://www.w3.org/2000/svg"
   version="1.1"
   width="892.91339"
   height="147.75591"
   id="svg4578">
  <defs
     id="defs4580">
    <clipPath
       id="clipPath4539">
      <path
         d="m 391.181,52.795 165.827,0 0,33.189 -165.827,0 0,-33.189 z"
         id="path4541" />
    </clipPath>
  </defs>
  <metadata
     id="metadata4583">
    <rdf:RDF>
      <cc:Work
         rdf:about="">
        <dc:format>image/svg+xml</dc:format>
        <dc:type
           rdf:resource="http://purl.org/dc/dcmitype/StillImage" />
        <dc:title></dc:title>
      </cc:Work>
    </rdf:RDF>
  </metadata>
  <g
     transform="translate(42.397459,-445.69134)"
     id="layer1">
    <g
       transform="matrix(5.7263496,0,0,-5.7263496,-2316.0224,915.06192)"
       id="g4535">
      <g
         clip-path="url(#clipPath4539)"
         id="g4537">
        <path
           d="m 422.919,81.362 -25.254,0 0,-24.342 25.254,0 0,24.342 z"
           id="path4543"
           style="fill:#ffffff;fill-opacity:1;fill-rule:nonzero;stroke:none" />
        <g
           transform="translate(422.9189,57.0206)"
           id="g4545">
          <path
             d="m 0,0 0,12.92 c -0.645,0.099 -1.308,0.138 -1.991,0.138 -7.874,0 -14.657,-5.621 -17.517,-13.059 L 0,0"
             id="path4547"
             style="fill:#1c4e9d;fill-opacity:1;fill-rule:nonzero;stroke:none" />
        </g>
        <g
           transform="translate(422.9189,81.3622)"
           id="g4549">
          <path
             d="m 0,0 -0.588,0 c -6.294,-2.013 -13.429,-6.945 -19.45,-17.928 0,0 1.575,9.887 9.46,17.928 l -14.676,0 0,-24.342 2.755,0 C -18.14,-16.237 -9.512,-10.459 0,-9.596 L 0,0"
             id="path4551"
             style="fill:#0977b6;fill-opacity:1;fill-rule:nonzero;stroke:none" />
        </g>
        <g
           transform="translate(435.072,57.0206)"
           id="g4553">
          <path
             d="m 0,0 0,12.17 7.743,0 c 3.044,-0.016 5.596,-1.045 5.596,-3.186 0,-1.499 -1.678,-2.41 -3.491,-2.663 l 0,-0.033 C 11.997,6.068 13.741,5.041 13.741,3.304 13.741,-0.235 7.743,0 7.587,0 L 0,0 z m 7.095,2.361 c 1.118,0 1.946,0.505 1.946,1.263 0,0.675 -0.627,1.316 -1.633,1.366 l -2.932,0 0,-2.629 2.619,0 z M 4.476,7.333 6.758,7.349 c 1.209,0 1.992,0.355 1.992,1.281 0,0.692 -0.783,1.18 -1.835,1.18 l -2.439,0 0,-2.477 z m 10.65,-1.248 c 0,4.012 3.021,6.338 8.371,6.338 5.348,0 8.371,-2.326 8.371,-6.338 0,-4.011 -3.023,-6.337 -8.371,-6.337 -5.35,0 -8.371,2.326 -8.371,6.337 m 8.371,3.978 c -3.044,0 -3.671,-2.124 -3.671,-4.028 0,-1.805 0.627,-3.927 3.671,-3.927 3.044,0 3.669,2.122 3.669,3.927 0,1.904 -0.625,4.028 -3.669,4.028 M 38.283,0 l -4.475,0 0,12.17 7.475,0 c 2.73,0 6.267,-0.556 6.267,-3.136 0,-1.82 -1.859,-2.78 -4.119,-2.983 l 0,-0.067 C 46.296,5.933 46.69,4.802 47.161,2.95 47.485,1.682 47.451,1.731 47.848,0 l -4.857,0 c 0,0 -0.009,0.119 -0.355,2.546 -0.226,1.572 -0.391,2.107 -2.673,2.107 l -1.68,0 0,-4.653 z m 1.746,7.012 c 1.434,0 2.821,0.152 2.821,1.399 0,1.248 -1.387,1.399 -2.821,1.399 l -1.746,0 0,-2.798 1.746,0 z M 50.2,0 l 0,12.17 12.015,0 0,-2.36 -7.539,0 0,-2.511 6.912,0 0,-2.359 -6.912,0 0,-2.579 7.539,0 L 62.215,0 50.2,0 z m 13.236,0 6.379,12.17 5.461,0 L 81.655,0 76.596,0 75.522,2.378 68.965,2.378 67.912,0 63.436,0 z m 10.99,4.737 -2.06,5.057 -0.067,0 -2.192,-5.057 4.319,0 z M 83.28,0 l 0,12.17 4.475,0 0,-9.809 6.564,0 0,-2.361 -11.039,0 z m 13.015,12.17 4.477,0 0,-12.17 -4.477,0 0,12.17 z M 112.25,8.597 c 0.022,0.471 -0.179,0.825 -0.582,1.078 -0.38,0.253 -0.962,0.388 -1.723,0.388 -1.03,0 -1.926,-0.506 -1.926,-1.112 0,-0.894 1.432,-1.181 2.62,-1.416 2.708,-0.523 6.647,-0.725 6.647,-4.012 0,-2.562 -3.357,-3.775 -7.095,-3.775 -3.76,0 -7.073,0.825 -7.139,4.129 l 4.474,0 c -0.021,-1.146 1.098,-1.769 2.708,-1.769 1.03,0 2.352,0.404 2.352,1.214 0,1.651 -3.314,1.297 -6.827,2.46 -1.634,0.539 -2.439,1.651 -2.439,2.966 0.178,2.883 3.536,3.675 6.914,3.675 3.336,0 6.76,-0.894 6.493,-3.826 l -4.477,0"
             id="path4555"
             style="fill:#1c4e9d;fill-opacity:1;fill-rule:nonzero;stroke:none" />
        </g>
      </g>
    </g>
  </g>
</svg>
